<?xml version="1.0" encoding="UTF-8"?>
<!DOCTYPE svg PUBLIC "-//W3C//DTD SVG 1.1//EN" "http://www.w3.org/Graphics/SVG/1.1/DTD/svg11.dtd">
<!-- Creator: CorelDRAW -->
<svg xmlns="http://www.w3.org/2000/svg" xml:space="preserve" width="8.26772in" height="11.6929in" version="1.1" style="shape-rendering:geometricPrecision; text-rendering:geometricPrecision; image-rendering:optimizeQuality; fill-rule:evenodd; clip-rule:evenodd"
viewBox="0 0 8267.72 11692.91"
 xmlns:xlink="http://www.w3.org/1999/xlink"
 xmlns:xodm="http://www.corel.com/coreldraw/odm/2003">
 <defs>
  <style type="text/css">
   <![CDATA[
    .fil0 {fill:#0F4229}
    .fil3 {fill:#ED751E}
    .fil2 {fill:url(#id0)}
    .fil1 {fill:url(#id1)}
   ]]>
  </style>
  <linearGradient id="id0" gradientUnits="userSpaceOnUse" x1="5160.31" y1="3404.4" x2="5168.81" y2="2456.1">
   <stop offset="0" style="stop-opacity:1; stop-color:#0F4229"/>
   <stop offset="1" style="stop-opacity:1; stop-color:#5EF500"/>
  </linearGradient>
  <linearGradient id="id1" gradientUnits="userSpaceOnUse" x1="5157.48" y1="3584.73" x2="5168.8" y2="2456.1">
   <stop offset="0" style="stop-opacity:1; stop-color:#0F4229"/>
   <stop offset="0.560784" style="stop-opacity:1; stop-color:#369B15"/>
   <stop offset="1" style="stop-opacity:1; stop-color:#5EF500"/>
  </linearGradient>
 </defs>
 <g id="Layer_x0020_1">
  <metadata id="CorelCorpID_0Corel-Layer"/>
  <g id="_2136433857616">
   <path class="fil0" d="M5157.48 2117.36c414.02,0 749.65,335.43 749.65,749.2 0,413.77 -335.63,749.2 -749.65,749.2 -414.01,0 -749.64,-335.43 -749.64,-749.2 0,-413.77 335.63,-749.2 749.64,-749.2zm0 -61.18c447.83,0 810.86,362.82 810.86,810.38 0,447.56 -363.04,810.38 -810.86,810.38 -447.82,0 -810.86,-362.81 -810.86,-810.38 0,-447.56 363.04,-810.38 810.86,-810.38z"/>
   <path class="fil1" d="M5804.02 3180.37c-160.79,-74.42 -323.25,-143.2 -488.01,-204.24 -281.33,-104.22 -568.98,-185.7 -865.87,-233.8l-0.52 -0.15c-2.27,12.98 -4.19,26.09 -5.75,39.3 252.78,79.87 499.17,174.19 729.21,281.6 185.1,86.42 359.64,181.32 518.44,284 44.86,-49.76 82.85,-105.83 112.5,-166.71zm-801.74 340.82c-150.18,-152.61 -326.11,-331.37 -538.93,-468.11 73.85,275.19 307.19,485.15 594.92,524.85 -18.27,-18.4 -36.93,-37.36 -56,-56.74zm426.68 10.51c-123.97,-96.05 -244.06,-181.61 -378.69,-266.4 -167.8,-105.69 -358.68,-210.46 -608.44,-333.26 2.12,23.49 5.38,46.65 9.71,69.43 230.75,141.25 418.37,331.9 577.4,493.5 30.3,30.78 59.54,60.5 87.85,88.62 13.46,0.75 27.03,1.13 40.68,1.13 96.06,0 187.72,-18.84 271.48,-53.02zm236.35 -157.03c-155.83,-100.33 -326.83,-193.14 -508.05,-277.75 -226.2,-105.62 -468.35,-198.5 -716.86,-277.36 -1,15.54 -1.52,31.21 -1.52,47 0,7.52 0.12,15.01 0.35,22.47 259.93,127.23 457.33,235.27 630.96,344.63 141.6,89.19 267.09,179.08 397.58,280.84 73.67,-35.3 140.39,-82.78 197.54,-139.83z"/>
   <path class="fil2" d="M5819.5 3146.35c13.72,-32.37 25.12,-65.95 34.02,-100.55 -41.6,20.92 -81.5,41.35 -119.9,61.41 28.68,12.86 57.3,25.91 85.89,39.14zm55.22 -324.32c-177.37,31.5 -351.5,74.75 -522.99,127.46 49.83,18.7 99.46,38.1 148.92,58.15 122.42,-48.86 247.99,-94.22 375.41,-135.9 0.02,-1.73 0.02,-3.46 0.02,-5.19 0,-14.95 -0.46,-29.8 -1.36,-44.53zm-10.77 176.63c5.3,-28.5 8.92,-57.58 10.75,-87.15 -109.77,36.16 -218.11,75.06 -324.19,116.59 46.64,19.36 93.13,39.28 139.47,59.7 54.78,-28.87 112.57,-58.48 173.96,-89.14z"/>
   <polygon class="fil3" points="5165.48,2358.82 5173.4,2310.28 5181.85,2360.47 5193.7,2312.73 5198.05,2363.44 5213.74,2316.83 5213.95,2367.74 5233.38,2322.56 5229.44,2373.31 5252.48,2329.88 5244.43,2380.13 5270.93,2338.72 5258.82,2388.15 5288.6,2349.05 5272.5,2397.33 5305.37,2360.78 5285.4,2407.58 5321.12,2373.84 5297.41,2418.86 5335.77,2388.15 5308.47,2431.08 5349.2,2403.6 5318.5,2444.16 5361.32,2420.1 5327.43,2458.02 5372.07,2437.53 5335.2,2472.56 5381.36,2455.79 5341.76,2487.68 5389.13,2474.74 5347.07,2503.29 5395.34,2494.26 5351.09,2519.29 5399.94,2514.22 5353.8,2535.56 5402.89,2534.5 5355.17,2551.99 5404.19,2554.94 5355.2,2568.49 5403.82,2575.43 5353.9,2584.93 5401.78,2595.81 5351.26,2601.2 5398.1,2615.96 5347.3,2617.21 5392.78,2635.75 5342.05,2632.84 5385.87,2655.03 5335.54,2648 5377.42,2673.69 5327.83,2662.57 5367.47,2691.59 5318.95,2676.46 5356.11,2708.62 5308.98,2689.57 5343.39,2724.67 5297.97,2701.84 5329.41,2739.63 5286,2713.17 5314.26,2753.39 5273.15,2723.47 5298.04,2765.87 5259.5,2732.7 5280.86,2776.99 5245.15,2740.78 5262.83,2786.67 5230.19,2747.66 5244.07,2794.84 5214.71,2753.29 5224.72,2801.45 5198.83,2757.65 5204.89,2806.46 5182.65,2760.69 5184.71,2809.84 5166.27,2762.4 5164.33,2811.56 5149.81,2762.77 5143.88,2811.6 5133.38,2761.8 5123.49,2809.98 5117.07,2759.48 5103.3,2806.7 5101.02,2755.85 5083.44,2801.78 5085.31,2750.91 5064.06,2795.25 5070.05,2744.7 5045.26,2787.17 5055.35,2737.27 5027.19,2777.57 5041.3,2728.67 5009.96,2766.54 5028,2718.95 4993.68,2754.13 5015.54,2708.18 4978.47,2740.43 5004,2696.42 4964.42,2725.54 4993.44,2683.76 4951.63,2709.55 4983.96,2670.28 4940.19,2692.57 4975.6,2656.07 4930.16,2674.71 4968.43,2641.22 4921.62,2656.09 4962.49,2625.84 4914.63,2636.84 4957.82,2610.02 4909.22,2617.08 4954.45,2593.88 4905.44,2596.95 4952.41,2577.51 4903.31,2576.57 4951.7,2561.04 4902.85,2556.09 4952.34,2544.56 4904.05,2535.63 4954.32,2528.19 4906.92,2515.35 4957.62,2512.03 4911.42,2495.37 4962.23,2496.2 4917.54,2475.81 4968.11,2480.79 4925.22,2456.83 4975.22,2465.91 4934.43,2438.54 4983.53,2451.67 4945.1,2421.05 4992.96,2438.16 4957.15,2404.5 5003.46,2425.45 4970.51,2388.98 5014.96,2413.65 4985.09,2374.61 5027.38,2402.83 5000.78,2361.47 5040.65,2393.05 5017.5,2349.67 5054.66,2384.39 5035.12,2339.26 5069.32,2376.91 5053.52,2330.33 5084.56,2370.64 5072.6,2322.93 5100.24,2365.64 5092.21,2317.12 5116.29,2361.94 5112.23,2312.92 5132.58,2359.56 5132.52,2310.37 5149.02,2358.52 5152.96,2309.49 "/>
  </g>
 </g>
</svg>
